<?xml version="1.0" encoding="UTF-8"?>
<svg xmlns="http://www.w3.org/2000/svg" viewBox="0 0 1152.89 847.06">
  <g id="a" data-name="Body">
    <path d="M202.25,342.16c-4.13-7.15-9.72-12.33-17.03-15.79-6.04-2.85-11.91-6.06-17.85-9.12-2.82-1.45-5.67-1.93-8.6-.7-.34,1.29.08,2.09.31,2.84s2.28,8.89.44,13.98c-1.55,4.29-2.62,6.85-5.21,10.67-1.37,2.02.06,6.32-.25,8.62-.11.86.16,1.98-1.12,2.15-1.1.14-1.56-.77-2.02-1.56-1.84-3.15-2.27-7.95,1.06-11.38,3.89-4,6.19-7.98,6.62-13.58.25-3.21.21-5.5-2.04-7.61-2.77-2.6-5.93-4.7-9.54-5.79-4.35-1.31-7.76-3.81-10.78-7.04-1.55-1.66-3.26-3.05-5.8-2.67-.44.06-1.06-.14-1.38-.44-3.76-3.66-8.04-4.66-12.12-2.9-1.26.54-3.46,2.1-5,2,2.65-4.38,11.67-7.33,15.86-2.97,2.13,1.19,4.26,2.25,6.58,3,2.39.77,4.25,2.47,5.64,4.46,1.73,2.47,3.9,3.05,6.77,3.02,6.67-.07,13.37-.47,20.02.56,3.95.61,7.66,1.74,11,4.06,1.56,1.09,3.25,2.27,5.05,2.72,8.7,2.14,14.33,8.46,20.18,14.47,3.46,3.56,6.25,7.63,8.9,11.87,5.47,8.76,12.82,15.25,22.58,19.48,11.17,4.85,22.53,8.45,34.6,9.76,9.56,1.04,19.16,1.63,28.78,1.59,21.13-.08,41.25,4.55,60.98,11.94,22.41,8.39,44.18,18.18,65.9,28.14,5.35,2.45,10.26,5.71,15.26,8.8,8.62,5.34,17.48,10.23,27.01,13.78.87.32,2.07.31,2.48,1.74-2.21.2-4.16-.58-6.1-1.2-15.84-5.09-31.01-11.84-46.16-18.62-14.14-6.33-28.05-13.15-42.1-19.69-15.16-7.06-31.56-10.03-47.89-13.02-14.22-2.61-28.48-5.07-42.98-5.38-4.55-.1-9.1.23-13.65.36-9.65.27-19.21-.28-28.62-2.65-3.87-.98-7.13-2.9-9.6-6.01-2.46-3.1-5.5-5.31-9.18-6.75-5.43-2.14-9.12-6.33-12.24-11.01-3.03-4.55-5.77-9.29-8.75-14.13Z"/>
    <path d="M192.49,401.79c2.93,2.99,6.09,5.35,9.43,7.46,3.54,2.23,6.21,5.13,7.6,9.15.88,2.54,2.27,4.73,4.55,6.28.76.51,1.62,1.12,1.31,2.18-.39,1.3-1.62,1.07-2.57.97-7.62-.81-13.53-4.31-16.46-11.58-2.12-5.26-4.85-9.94-9.02-13.84-2.38-2.23-4.09-5.07-5.27-8.09-2.62-6.68-6.8-12.13-12.33-16.61-4.3-3.49-6.02-8.22-6.54-13.53-.07-.7-.26-1.42.57-1.92,1.23.13,1.52,1.13,1.74,2.1,1.28,5.61,4.61,9.6,9.72,12.09,4.12,2.01,6.29,5.57,8,9.55,2.4,5.6,5.01,11.07,9.28,15.82Z"/>
    <path d="M87.95,315.89c4.82-.29,9.34-1,13.6-3.11,4.57-2.27,9.4-4.09,15.13-4.08.67-.05,1.13,0,1.46-.15,7.17-3.22,12.23,1.08,17.71,3.71,1.45.69,2.62,1.89,2.12,3.59-1.75.5-2.65-.51-3.58-1.2-3.11-2.29-6.64-3.24-10.69-2.73-7.31.91-14.24,2.67-19.93,6.95-2.67,2.01-5.64,2.86-9.2,2.55-5.73-.49-11.51-.6-17.21-1.25-8.58-.97-16.94.11-25.31,1.42-1.78.28-3.58.58-5.42.04-.46-1.37.8-1.9,1.7-2.47,2.74-1.75,5.79-2.81,9.28-2.81"/>
    <path d="M88.02,307.99c4.59.02,9.18,0,13.77.43-18.45,3.29-36.87,1.35-55.58-.66-7.42-.31-14.52.22-21.89,1.61.55-1.84,1.8-1.76,2.74-2.03,8.02-2.24,16.2-2.56,24.35-1.18"/>
    <path d="M111.38,338.39c13.65,3.76,22.08-3.45,29.14-13.84,1.39,1.89.9,3.31.44,4.7-1.07,3.21-3.35,5.53-5.9,7.54-3.91,3.1-8.34,5.39-12.94,7.23-4.85,1.94-9.13.05-13.08-2.69-2.19-1.52-4.48-3.05-5.51-6.35,3.29.19,5.08,2.71,7.87,3.42Z"/>
    <path d="M117.62,334.48c-2.18-.26-4.25.57-6.7-1.23,4.01-.84,7.53.16,10.84-.93,3.43-1.12,5.17-4.63,8.59-6.06-.41,5.22-4.99,8.12-12.73,8.21Z"/>
    <path d="M509.51,451.85s37.52,6.14,62.32-14.9c24.8-21.04,19.14-45.32,18.36-49.28s-1.94-12.95.89-3.87,9.73,19.1-5.98,42.66c-15.71,23.56-32.44,32.07-70.37,27.41s-5.22-2.02-5.22-2.02Z"/>
    <path d="M624.83,412.67c-.58-4.14-.94-8.07-1.58-11.96-2.77-16.8-8.62-32.39-18.11-46.61-10.34-15.5-24.4-26.93-39.68-37.11-23.46-15.63-48.93-24.56-77.44-23.42-1.01.04-2.14-.33-3.01.48.28.77.77.9,1.26,1.02,11.13,2.73,24.97,4.34,35.93,7.64,14.79,4.46,33.14,14.59,39.92,19.96,4.96,3.92,24.17,22.25,35.77,41.44,13.63,22.56,11.84,56.71-.62,79.61-10.23,18.81-26.84,30.33-46.48,37.58-17.26,6.37-35.41,9.12-53.56,11.59-7.98,1.08-15.91,1.4-23.54-2.14-1.7-.79-3.8-1.51-6.09-.19,1.61,6.56,2.31,13.28,2.99,20,.9,8.85,1.36,17.72,1.29,26.65-.04,5.66-2.31,10.62-3.6,15.89-.53,2.19-.1,4.58-1.42,6.89-1.88-2.88-2.67-5.83-2.06-8.85,1.89-9.38,2.53-18.83,2.25-28.38-.33-11.27-3.49-21.72-9-31.5-.42-.74-.75-1.76-1.99-1.45-.6,1.1-.17,2.17,0,3.26.44,2.69,1.13,5.36.77,8.13-1.57,11.85-5.23,23.06-10.48,33.77-3.93,8.01-9.17,15.28-12.97,23.37-3.07,6.52-2.56,12.4,1.98,18.13,5.28,6.69,10.88,13.08,16.56,19.43,9.88,11.04,20.56,21.26,31.56,31.16,3.64,3.28,6.1,7.24,7.01,12.14,1.76,9.52,5.26,18.26,11.57,25.75,1.25,1.48,1.85,3.33,2.33,5.23,1.12,4.42.4,8.82-1.23,12.79-2.83,6.87-1.8,13.21,1.02,19.66.83,1.89,1.66,3.9,1.18,6.59-2.07-2.07-4.4-1.72-6.72-1.65-3.25.1-5.28-1.17-5.27-4.13.02-5.57-1.24-10.73-3.09-15.94-1.74-4.89-.43-10.01.16-15.03.22-1.87.86-3.84-.42-5.96-1.28,1.9-1.49,3.84-2.11,5.62-4,11.52-9.01,22.34-19.31,29.84-2.2,1.6-3.92,2.06-6.24-.06,5.06-5.44,10.58-10.5,14.14-17.23,5.33-10.08,7.72-17.39,5.84-21.61-1.49,9.7-6.69,16.38-13.19,22.22-6.6,5.92-13.61,10.86-23.76,9.81,8.45-3.28,14.53-9.15,21.21-14.2,7.64-5.77,11.11-13.28,11.47-22.69.17-4.32.04-8.73,1.21-12.97.69-2.5,1.98-2.91,3.99-1.34,1.19.93,2.19,2.1,3.31,3.12.83.75,1.73,1.59,2.95,1.07,1.2-.51,1.28-1.75,1.39-2.85.28-2.8-1.05-5.11-2.44-7.36-4.08-6.59-9.31-12.25-14.78-17.68-1.01-1.01-2.06-2.21-3.9-2.37-.26,1.75.77,2.78,1.61,3.86,1.18,1.52,2.55,2.89,3.64,4.47,1.02,1.49,1.47,3.35.18,4.8-1.34,1.5-2.81.18-4.09-.53-4.24-2.37-7.13-6.26-10.6-9.5-6.87-6.44-13.33-13.54-21.89-17.72-10.55-5.15-18.3-12.98-23.92-22.99-8.21-14.62-14.61-30.06-19.31-46.14-3.59-12.27-10.44-21.56-22.14-27.03-.92-.43-1.83-1.31-3.57-.03,9.76,5.65,15.13,14.07,17.57,25.14-.98-.39-1.38-.46-1.69-.68-7.51-5.22-15.83-8.79-24.65-10.77-12.92-2.9-25.29-7.28-37.32-12.62-9.75-4.32-16.41-11.33-17.23-22.68-.13-1.84.04-3.99-1.95-5.88-.4,8.22-.26,15.91,3.56,22.89,2.12,3.88,3.18,7.83,2.99,12.18-.12,2.75.76,5.16,2.28,7.4,2.66,3.92,2.59,4.62-1.11,7.79-5.74,4.91-12.04,9.06-19.12,11.63-7.83,2.84-15.69,5.45-22.11,11.06-.11.09-.37.01-.95.01.88-2.41,1.99-4.41,3.91-6.03,3.01-2.54,6.57-3.95,10.23-5.19,5.18-1.76,10.34-3.61,14.93-6.69,4.1-2.75,7.35-6.22,7.94-11.32.37-3.2.42-6.5.04-9.69-.44-3.72-2.27-7.04-4.06-10.3-.82,3.52-.08,6.98-.93,10.37-.56,2.24-1.63,3.38-3.98,3.88-4.41.93-8.01,3.17-10.22,7.37-1.27,2.41-2.8,4.7-4.38,6.93-1.66,2.34-3.64,4.67-6.49,5.26-7.34,1.52-12.09,6.26-16.78,11.68-4.56,5.28-11.12,6.36-18.52,6.23,2.07-2,4.11-2.52,6.1-3.07,2.73-.76,5.54-1.24,8.22-2.14,4.52-1.52,7.68-6.05,7.32-10.95-5.25,4.48-10.8,2.79-16.35,1.56-1.06-.23-2.23-.17-3.32,0-3.56.53-5.97,3.54-5.81,7.1,5.94-2.63,6.91-2.46,8.86,1.67-2.78,1.59-5.64,3.08-7.98,5.38-3.9,3.84-5.32,9.62-3.44,14.53,1.72,4.49,6.29,5.74,9.67,2.43-.85-.69-1.73-1.32-2.51-2.05-.72-.68-1.61-1.4-1.2-2.57.35-1,1.32-1.13,2.24-1.3,1.72-.33,3.31-.8,4.15-2.65.65-1.44,2.07-1.05,3.23-.87,1.41.22,1.17,1.43,1.19,2.42.04,2.02-.09,4.07.12,6.07.35,3.22,2.15,5.3,4.77,5.42,2.93.14,5.88.13,8.81-.08,2.3-.17,4.24-1.12,4.66-4.05-2.79-.02-5.83,1.45-7.32-.84,3.47-10.7,10.51-16.85,21.29-19.94-2.94,8.01-1.8,14.82,2.41,21.23,2.17,3.3,4.22,6.68,6.33,10.02,8.37,13.27,17.27,26.27,22.26,41.36.16.48.42.92,1.21.72,0-.35.03-.72,0-1.1-.69-7.8-4.37-14.43-8.16-21.04-1.71-2.99-3.39-6.05-3.65-9.57-.47-6.16-2.27-11.87-5.24-17.29-2.98-5.44-5.11-11.23-6.09-17.4-.98-6.16,5.11-14.39,11.21-14.85,10.56-.79,20.82.6,30.61,4.77,1.34.57,2.94.87,3.67,2.53-1.48,3.06-4.13,4.98-6.75,6.84-8.91,6.29-18.67,5.92-28.96,2.74.37,1.82,1.27,2.36,2.06,2.89,3.45,2.3,6.83,4.76,10.44,6.78,5.17,2.89,7.9,7.16,8.09,12.99.14,4.35.06,8.71-.04,13.07-.06,2.6.42,5.05,1.59,7.34,2.4,4.72,3.16,9.77,3.3,14.98.24,8.81.37,17.62.84,26.41.28,5.14.29,10.35,1.44,15.4,2.27,9.96,1.28,20.32,3.88,30.23.07.29.04.61.03.91-.04,1.34-.06,2.85-1.47,3.41-1.43.57-2.37-.8-3.44-1.49-1-.65-.83-1.75-.91-2.75-.28-3.5,1-6.78,1.37-10.19.21-1.91.97-4.4-1.07-5.16-2.12-.79-3.1,1.78-4.13,3.29-3.16,4.61-5.46,9.7-8.05,14.63-2.18,4.14-5.33,6.99-9.82,8.52-2.86.97-5.89,1.43-8.57,2.98-1.18.68-2.64.32-3.77-.44-4.39-2.98-8.72-3.49-12.98.41-.67-3.7.37-5.58,3.53-6.46,1.85-.51,3.77-.66,5.69-.85,4.5-.45,9.29-.45,12.56-4.33,6.34-7.52,13.26-14.5,19.91-21.73.63-.68,1.66-1.3.95-2.57-1.49-.02-2.38,1.07-3.4,1.82-6.63,4.85-13.42,9.46-20.57,13.5-5.83,3.3-11.75,6.1-18.66,6.79-7.09.71-13.88,2.64-16.33,10.81-.39,1.29-1.56,2.15-3.07,2.06-1.52-.09-2.28-1.16-2.81-2.44-1.09-2.63-.73-5.4-.67-8.11.05-2.2-.87-2.92-2.93-2.64-3.24.44-6.37,1.21-9.22,2.85-5.91,3.41-8.57,11.03-5.79,17.27,2.39-2.24,4.67-4.51,7.9-5.39,2.27-.62,3.96-.47,5.61,1.56,2.51,3.09,5.97,4.61,9.93,5.34,3.57.66,7-.36,10.61-.36.22,2.26-.61,4.74,1.8,6.51,1.18-1.4,1.67-3.48,3.58-3.68,6.21-.65,12.38-2.25,18.7-.98,6.05,1.23,12.1,2.41,18.34,2.02,7.34-.47,10.65-3.82,10.73-11.04.02-2.14-.25-4.34.84-6.58,2.04,2.83,3.74,5.54,6.44,7.51,2.94,2.14,8.41.55,9.11-4.2-1.19-.1-2.44,0-3.55-.35-1.56-.51-2.6-1.87-1.21-3.23,3.57-3.49,2.36-7.01.33-10.48-1.37-2.33-.92-4.19.73-6.05,1.15-1.3,2.41-2.41,3.93-3.3,2.36-1.38,4.75-2.75,6.88-4.45,8.9-7.11,8.84-11.32,4.7-18.98-4.89-9.05-6.56-18.67-5.18-28.79,1.22-8.94,1.69-17.77.3-26.81-1.27-8.24,4.25-19.84,15.13-23.01,6.11-1.78,12.21-3.71,17.89-6.72,3.52-1.87,7.33-2.85,11.15-3.88,2.01-.54,3.04-.1,3.69,1.82,4.9,14.5,15.38,24.49,27.04,33.55,5.7,4.43,12.45,7.19,18.01,11.85,10.26,8.61,18.89,18.39,23.09,31.38,1.99,6.16,3.32,12.53,5.3,18.69,1.73,5.4.13,9.47-4.01,12.9-5.77,4.78-11.52,9.59-17.31,14.35-3.02,2.48-6.47,4.07-10.29,4.98-4.43,1.06-8.9,2.12-12.81,4.61-5.38,3.42-5.64,12.94-.5,16.8.27.2.71.19,1.1.29,1.04-1.97.51-4.16,1.57-5.96,1.21-2.07,3.85-3.24,5.32-1.78,3.85,3.83,8.45,3.16,13.07,2.73,1.46-.13,2.84-.08,3.95.8.17.07.3.18.37.33,1.49,3.04,11.83,5.39,14.52,5.95.21.03.42.07.64.13.67.17,1.41.03,2.12.03,7.03-.02,10.01-1.87,13.47-8.83-.34,4.52,1.59,6.58,5.32,7.6,2.75.75,4.31,3.23,5.68,5.65.59,1.04,1.14,2.1,1.69,3.13,1.49-.19,1.5-1.41,1.93-2.23,1.39-2.68,3.01-4.86,6.27-5.66,2.96-.73,5.25-5.33,4.81-8.69-.42-3.24-1.36-6.32-2.76-9.27-1.17-2.47-2.05-5.04-2.66-7.73-.74-3.27-.47-6.1.86-8.75.03-.08.08-.17.14-.28,2.89-4.7.38-16.57.38-16.57-1.84-9.7-6.35-17.61-8.39-26.38-1-4.28-1.4-8.59-1.07-12.94.31-4.03.86-8.04,1.32-12.05.66-5.68-.04-6.8-5.51-7.89-2.67-.53-3.73-2.05-3.9-4.6-.16-2.39.51-4.6,1.11-6.85,2.72-10.35-1.02-21.33-9.47-27.8-2.86-2.19-4.12-5.13-4.36-8.64-.11-1.73.58-2.62,2.27-2.95,24.07-4.71,47.53-11.58,70.5-20.14,4.26-1.59,8.42-3.46,12.64-5.17,0,0,13.44-6.97,20.33-11.72,14.58-10.51,23.8-25.55,32.16-41.14,7.29-13.59,10.07-28.52,10.97-43.82.05-.8.2-1.59.38-2.91.07-6.62.07-12.71-.02-19.03ZM353.43,659.45c1.74,4.37.76,6.75-3.27,9.09-1.8,1.05-3.52,2.26-5.3,3.42-.03-.27-.14-.53-.06-.61,5.49-5.81,6.06-12.43,3.48-19.7-1.76-4.95-2.97-10.12-4.99-14.95-3.53-8.44-3.96-17.04-2.47-25.89.1-.59.13-1.2.13-1.79,0-.13-.26-.26-.86-.82-2.72,6.23-2.2,12.68-2.96,18.93-.79,6.55,1.66,12.5,2.64,18.82-.41-1.23-.85-2.46-1.2-3.7-.38-1.36-.71-2.74-1-4.13-2.04-9.81-3.73-19.66-3.6-29.72.04-3.39.86-6.59,2.38-9.62,1.62-2.6,3.52-4.13,6.22-3.58,3.03.61,3.92,3.11,4.46,5.85,1.06,5.36.66,10.73-.13,16.01-1.69,11.2.56,21.93,3.35,32.62.87,3.32,1.92,6.59,3.2,9.8ZM367.07,560.03c-9.56-3.99-18.24-9.62-27.74-13.6-7.7-3.23-15.79-4.94-24.13-5.5-.36-.02-.72-.13-.99-.52,15.1-.49,29.43,1.69,41.38,12.14,10.65,8.36,23.02,8.56,35.82,9.26-8.77,1.58-17.76.98-24.34-1.77Z"/>
    <path d="M296.79,514.91c-.55-.65-1.36-.46-2.14-.34-4.34.69-8.69.43-13.04.3-9.34-.28-15.87-4.71-19.89-13.07-1.32-2.75-2.44-5.56-3.37-8.45-1-3.08-2.02-6.16-3.21-9.17-.48-1.22-.83-2.78-2.86-3.07.3,3.29.59,6.47.94,10.28-3.91-6.01-6.56-12.01-10.88-16.89-1.52-1.71-1.6-3.17-.31-4.8,7.58-9.58,16.05-17.6,29.58-16.56,4.03.31,8.06.74,12.1.95,1.98.11,4.2.57,5.67-1.49-.86-1.72-2.44-1.72-3.75-1.93-7.95-1.23-15.95-1.46-23.88,0-5.14.95-10.2,2.71-13.5,6.98-2.79,3.61-6.17,4.73-10.35,4.26-4.45-.5-8.87-.7-13.31.05-1.6.27-3.2.2-4.35-1.41-2-2.8-4.85-4.54-7.88-6.03-4.39-2.16-9.1-3.4-13.78-4.69-3.24-.9-5.92-2.5-7.75-5.44-1.43-2.3-3.48-4-6.05-4.87-10.48-3.52-16.37-11.8-21.65-20.73-.64-1.08-.83-2.29-.8-3.51.1-3.94-.04-7.88.48-11.82.36-2.72.67-5.55.14-8.37-9.49,23.03-25.64,36.32-50.8,38.45.07-3.46,2.83-5.32,2.56-8.22-1.55.12-2.18,1.15-3.02,1.83-4.58,3.67-9.69,6.36-15.45,7.42-3.56.65-6.82,1.77-9.9,3.61-6.69,4.01-13.15,8.4-20.19,11.8-6.17,2.98-12.46,5.32-19.52,4.72-5.92-.5-10.41-3.7-11.9-8.78-.87-2.97-.42-3.71,2.74-4.27,2.89-.52,5.76-.96,8.44-2.32,9.7-4.93,19.01-10.37,26.63-18.35,3.14-3.29,6.56-6.33,10.02-9.3,5.16-4.42,10.59-8.06,18.02-7.23,2.51.28,5.23-.53,7.74-1.25,11.6-3.32,21.58-8.39,25.67-21.19,2.21-6.92,6.24-13.16,10.72-18.97,1.62-2.1,3.67-3.79,5.62-5.68-3.72-.48-7.31.82-11.01-.53,2.1-7.65,5.11-25.57,3.74-24.24-2.76,2.47-2.11,5.61-2.99,8.63-2.14,7.35-3.88,14.31-11.79,17.49-4.9,1.97-9.92,3.59-15.08,4.6-4.3.84-8.21.17-11.92-2.85-5.9-4.8-12.78-8.43-20.5-8.16-10.05.35-20.01.32-29.98-.96-9.62-1.23-19.09-2.95-27.02-9.03-3.64-2.79-7.1-5.44-11.84-6.37-4.06-.8-5.71-2.17-4.79-6.21.54-2.37,1.57-8,.83-8s-1.39,1.11-2,2.44c-.89,1.94-1.9,3.39-2.81,5.23h0s0,.01-.01.03c-.63,1.29-1.22,2.76-1.68,4.74-.02.1-.02.21-.03.32-1.34,5.06-2.11,12.3,3.75,13.96,9.22,2.61,4.44-1.44,16.78,7.06,12.33,8.5,40.16,4.83,40.16,4.83h0c3.48.1,6.8.11,9.75.06,1.11,1.44,2.65,3.7,2.86,5.39.33,2.67,1.88,6.53,1.92,9.56.04,3.56.5,17.83,0,20.25-.28,1.36-.54,6.13-.53,10.23-.44.43-.86.86-1.25,1.27,0,0,0,0-.01,0-.22.24-.45.49-.67.74-.06.07-.13.14-.19.21-.05.06-.1.11-.15.17-1.84,2.05-2.92,3.53-2.92,3.53-12.82,16.71-31.28,21.56-40.76,24.52-.63.38-1.5.57-2.15.88-2.94,1.38-3.23,2.13-1.42,4.82,7.37,10.99,17.12,17.44,31.32,13.94.68-.19,3.27-.91,5.86-1.76.19-.08.39-.16.6-.23,5.11-1.68,9.94-4.02,14.68-6.57,3.65-1.96,7.27-4,11.22-5.38,6.33-2.2,12.71-3.9,19.52-4.03,4.44-.09,8.65-1.77,12.91-3.11,5.62-1.77,11.72-1.67,17.28-3.99,1.03-.43,2,.54,2.33,1.54,2,6.14,7.11,9.42,11.87,13,6.43,4.83,14.03,7.65,20.83,11.88,8.81,5.48,18.06,9.99,28.37,12.04,3.38.67,6.57,2.05,9.61,3.7,5.11,2.78,8.81,6.7,10.3,12.51.86,3.35,2,6.66,4.24,9.34,1.52,1.81,1.34,3.52.35,5.28-.74,1.31-1.68,2.54-2.72,3.63-6.81,7.11-14.08,13.74-22.15,19.39-3.66,2.57-6.27,5.67-7.71,9.82-2.43,7.02-1.84,14.58-3.79,21.7-.38,1.37-.03,2.81-2.31,2.64-2.03-.15-1.7,1.17-.95,2.41.72,1.19,2.09,1.9,2.54,3.62-4.42,1.04-4.38-3.52-6.45-5.34-1.6,2.44-.65,4.4.44,6.23,2.4,4.05,9.08,6.5,14.26,5.34,3.74-.84,5.58-3.46,5.38-7.3-.08-1.48-.61-1.95-2.11-1.45q1.97-3.7.69-5.96c-.98.46-1.95,1.01-2.98,1.37-.78.28-1.66.25-2.16-.59-.46-.78-.4-1.77.36-2.19,1.92-1.05,1.61-3.1,2.17-4.66,11.14-.5,14.16-2.5,11.41-7.5-1.69.24-3.2,2.7-4.91,1.1-1.39-1.3.26-3.2.24-4.85,0-.5.12-1,.17-1.51.12-1.29.93-1.94,2.06-2.36,13.2-4.88,25.64-10.91,34.43-22.88,1.71,1.33,3.06,2.6,5.14,4.09,1.21.87,2.08,1.25,3.7,1.41,1.49.08,3.5.37,4.36.55,3.72,1.01,6.29,1.6,10.19,1.35.94-.06,1.94.03,2.45.9,2.72,4.62,7.38,5.62,12.06,6.73,1.73.41,2.84.06,4.01-1.2,2.96-3.2,6.04-6.29,10.09-8.17.52-.24,1.1-.58.95-1.52ZM83.55,359.91c.14,0,.27,0,.41,0,.1,0,.19,0,.24,0,0,0,0,0,0,0,4.81.09,8.62,1.89,11.82,5.03,3.06,3,6.25,5.74,10.16,7.6,2.62,1.25,5.06,1.24,7.49-.32,1.96-1.26,3.92-2.53,5.84-3.84,3.82-2.6,8.07-4.04,12.59-4.78.58-.1,1.14-.23,1.68-.42h-.02s4.93-1.19,7.69-1.41c-3.98,7.55-9.01,14.17-14.26,20.63-1.91,2.36-3.89,4.65-5.75,7.06-3.18,4.12-7.87,5.55-12.76,6.2-2.99.4-6.04.27-9.06.45-2.73.16-5.49-.02-8.43.5-.56.13-1.18.29-1.85.51,0,0-.02,0-.03,0-.09.03-.18.06-.27.09-.1.03-.2.07-.31.11-1.08.38-2.14.85-3.17,1.38l-.12-.37s.78-27.19-3.93-38.29c1.3-.08,2.04-.13,2.04-.13Z"/>
  </g>
  <g id="b" data-name="Features">
    <path d="M13.57,325.56s9.15-7.3,11.25-7.83,3.16-1.51,3.43-2.31-2.05-1.78-6.5,1.87-8.63,6.77-9.79,8.28-5.07,5.97,1.6,0Z"/>
    <path d="M25.19,321.92s2.25-.92,2.58-1.59,1.5-2.5-2.58-1.08-4.25,4.27,0,2.67Z"/>
    <path d="M4.65,348.12s-1.29,14.54,20.71,15,18.75,3.37,31.25,2.08,12.33-2,16.12-4.33-29.54-5.25-29.54-5.25c0,0-36.83-9.12-38.54-7.5Z"/>
    <g id="c" data-name="Back_Teeth">
      <path d="M33.95,433.87s-.53-4.25-.26-5.83.3-1.7.82-1.63,1.38.12,2.27,3.01.84,4.71-.27,5.09-2.39.88-2.55-.64Z" style="fill: #fff; stroke: #000; stroke-miterlimit: 10; stroke-width: .5px;"/>
      <path d="M41.61,365.02s.5,6.37,1.39,8.04.83,2,1.67,2.06,2.28-2.78,2.5-4.11.56-4.79.22-6.51-5.93-1.13-5.78.53Z" style="fill: #fff; stroke: #000; stroke-miterlimit: 10; stroke-width: .5px;"/>
      <path d="M31.78,364s1,7.67,3.06,9.72,1.5-1.83,1.5-2.44.22-5.62,1-7.59-5.91-1.84-5.56.31Z" style="fill: #fff; stroke: #000; stroke-miterlimit: 10; stroke-width: .5px;"/>
      <path d="M25.61,362.78s0,4.83,1.61,4.67,1.44-5.51,1.44-5.51c0,0-2.67-1.32-3.06.84Z" style="fill: #fff; stroke: #000; stroke-miterlimit: 10; stroke-width: .5px;"/>
      <path d="M16.94,360.67s.28,4.28.83,5.78.61,1.61,1.11,1.44,1.33-.37,1.67-3.38-.06-4.79-1.22-4.95-2.52-.42-2.39,1.11Z" style="fill: #fff; stroke: #000; stroke-miterlimit: 10; stroke-width: .5px;"/>
      <path d="M10.39,357.94s-.05,3.83.28,5.39.83,3.94,1.39.94,1.39-2.33,1.44-4.67.28-4.64-.39-4.57-2.28-.1-2.72,2.9Z" style="fill: #fff; stroke: #000; stroke-miterlimit: 10; stroke-width: .5px;"/>
      <path d="M53.11,365.02s.72,3.04,1.78,2.93,1.06-2.93.89-3.44-2.72-1.03-2.67.51Z" style="fill: #fff; stroke: #000; stroke-miterlimit: 10; stroke-width: .5px;"/>
      <path d="M59.12,364.76s.72,3.04,1.78,2.93,1.06-2.93.89-3.44-2.72-1.03-2.67.51Z" style="fill: #fff; stroke: #000; stroke-miterlimit: 10; stroke-width: .5px;"/>
      <path d="M6.67,350.78s-.11,5.78.5,7.06,1.67,3.76,2.28,1.02.78-3.35.89-5.13.17-3.83-1.06-3.72-2.6-.28-2.61.78Z" style="fill: #fff; stroke: #000; stroke-miterlimit: 10; stroke-width: .5px;"/>
      <path d="M64.09,363.55s.32,4.87,1.37,4.75,1.46-4.76,1.29-5.26-2.72-1.03-2.67.51Z" style="fill: #fff; stroke: #000; stroke-miterlimit: 10; stroke-width: .5px;"/>
      <path d="M4.78,347.67s-.25,2.4,0,5.22,1,3.03,1.58,2.53,1.67-1.08,1.75-7.75c.12-1.08-.5-1.85-2.26-1.76-.95.17-1.08,1.76-1.08,1.76Z" style="fill: #fff; stroke: #000; stroke-miterlimit: 10; stroke-width: .7px;"/>
      <path d="M49.86,428.42s-2.15-7.77-1.03-10.57,2.17,1.16,2.42,1.75,2.49,5.32,4.02,6.9-4.87,4.13-5.41,1.92Z" style="fill: #fff; stroke: #000; stroke-miterlimit: 10; stroke-width: .5px;"/>
      <path d="M41.36,430.54s-1.07-4.71.54-4.91,2.63,5.06,2.63,5.06c0,0-2.31,1.88-3.17-.15Z" style="fill: #fff; stroke: #000; stroke-miterlimit: 10; stroke-width: .5px;"/>
      <path d="M60.75,421.42s-.65-1.72-.29-4.05.59-4.41,2.06-1.73,2.77,3.96,1.94,5.17-3.42,1.87-3.71.62Z" style="fill: #fff; stroke: #000; stroke-miterlimit: 10; stroke-width: .5px;"/>
      <path d="M30.34,436.07s-1.43-5.6-1.12-6.98.77-4.04,1.99-1.51,1.52,3.08,2.04,4.79,1.04,3.69-.18,3.86-2.47.86-2.72-.16Z" style="fill: #fff; stroke: #000; stroke-miterlimit: 10; stroke-width: .5px;"/>
    </g>
    <path d="M30.03,437.25s1.42-3.58,13-6.92,10.5-5.58,14.08-6.75,7.42-2.33,8.92-2.42-22,18.17-36,16.08Z"/>
    <g id="d" data-name="Tongue">
      <path d="M43.82,415.17s22.08-.67,26.08,0,8.42-6.17,8.42-6.17c0,0-4.33-6.75-11.33-4.08s-21.67,7.25-21.67,7.25c0,0-3.6-1.52-3.71-.29-.1,1.16.1,3.23,2.21,3.29Z"/>
      <path d="M85.11,397s-14.83-4.67-25.5,4.5-14,8.67-15.17,8.67-2.33.58-2.33,1.67c0,1.25.33,1.67,2.17,1.83s11.83.33,19.33-4.83,13,0,13,0c0,0,8.5-5.5,8.5-8.17v-3.67Z" style="fill: #fff; stroke: #000; stroke-miterlimit: 10;"/>
    </g>
    <g id="e" data-name="Front_Teeth">
      <path d="M66.61,359.91s-.22,2.82.83,3.87,1.5,1.1,1.5-.76,1.11-2.24.33-3.41-2.67.29-2.67.29Z" style="fill: #fff; stroke: #000; stroke-miterlimit: 10; stroke-width: .7px;"/>
      <path d="M61.05,359.94s-.39,2.11.83,3.72,1.67,2.21,1.72-.65.61-2.24.44-3.41-2.96-.94-3,.33Z" style="fill: #fff; stroke: #000; stroke-miterlimit: 10; stroke-width: .7px;"/>
      <path d="M54.22,360.67s.17,1.83,1.5,3.78,2.44,3.72,2.61.67.78-4.77-.5-5.5-3.89-.2-3.61,1.05Z" style="fill: #fff; stroke: #000; stroke-miterlimit: 10; stroke-width: .7px;"/>
      <path d="M46.52,360.24s-.75,1.53.5,6.1,1.17,5.57,2.42,5.74,2-4.08,2.58-6.75.83-5.36-.83-5.72-4.45-.7-4.67.63Z" style="fill: #fff; stroke: #000; stroke-miterlimit: 10; stroke-width: .7px;"/>
      <path d="M9.34,348.33s-.71,3.42,0,6.5,2.14,5.33,2.62,0,2.61-7.41,1.31-7.67-3.65-1.16-3.93,1.17Z" style="fill: #fff; stroke: #000; stroke-miterlimit: 10; stroke-width: .7px;"/>
      <path d="M14.36,349.75s-.5,8.17,0,11.58,2.75,7.92,2.42,2,2.25-5.5,1.92-10.25-4.58-4.58-4.33-3.33Z" style="fill: #fff; stroke: #000; stroke-miterlimit: 10; stroke-width: .7px;"/>
      <path d="M21.19,353.83s-.17,8.75.5,11.33,2.17,3.83,2.83,0,1.67-5.78,1.58-8.73-4.83-4.77-4.92-2.61Z" style="fill: #fff; stroke: #000; stroke-miterlimit: 10; stroke-width: .7px;"/>
      <path d="M29.36,358.08s-.42,6.5.42,9.17,1.67,1.58,1.83-1.33,1.75-1.83,1.5-6.75-3.71-1.83-3.75-1.08Z" style="fill: #fff; stroke: #000; stroke-miterlimit: 10; stroke-width: .7px;"/>
      <path d="M36.78,359.91s-.19,3.37.5,5.57,1.58,5.11,2.11,6.06,1.39,3.17,1.47-.44.19-9.03.78-10.22-4.84-1.57-4.86-.95Z" style="fill: #fff; stroke: #000; stroke-miterlimit: 10; stroke-width: .7px;"/>
      <path d="M54.86,427s-2.09-5.19-1.33-12.06c.75-6.86,2.7,1.22,5.1,4.47,2.4,3.25,4.12,4.58,3.25,6.17s-6.01,1.42-6.51,1.42-.25.01-.5,0Z" style="fill: #fff; stroke: #000; stroke-miterlimit: 10; stroke-width: .7px;"/>
      <path d="M37.15,435.29s-.88-8.71-.42-11.34,1.85-4,2.82-.23,2.13,5.63,2.29,8.57-4.43,5.15-4.69,3Z" style="fill: #fff; stroke: #000; stroke-miterlimit: 10; stroke-width: .7px;"/>
      <path d="M45.74,432.45s-1.23-3.37-1.19-5.82.05-5.69.3-6.81.44-3.65,1.63,0,2.96,9.13,3.92,10.17-4.45,3.08-4.66,2.46Z" style="fill: #fff; stroke: #000; stroke-miterlimit: 10; stroke-width: .7px;"/>
      <path d="M32.85,436.08s-1.17-5.19.7-5.42,2.98,5.54,2.98,5.54c0,0-2.7,2.1-3.67-.12Z" style="fill: #fff; stroke: #000; stroke-miterlimit: 10; stroke-width: .7px;"/>
    </g>
    <g id="f" data-name="Eye">
      <path d="M118.36,330.63c4.21-.84,7.24-3.34,6.98-5.97-.29-2.93-4.56-4.9-9.53-4.41-3.22.32-5.94,1.6-7.38,3.25,0,0,0,0,0,0,0,0-.03.04-.09.11-.24.29-.44.58-.59.89-1.32,2.22-3.21,7.3,7.9,6.47.71-.05,1.33-.12,1.87-.2.24-.03.48-.07.71-.12.04,0,.09-.02.13-.02Z"/>
      <ellipse cx="114.41" cy="326.11" rx="1.14" ry="3.34" transform="translate(-22.65 8.85) rotate(-4.03)" style="fill: #fff;"/>
    </g>
  </g>
  <g id="g" data-name="Circle">
    <path d="M157.64,299.37c42.27-32.22,95.06-51.36,152.31-51.36,121.39,0,222.7,86.01,246.3,200.42l19.46-13.14c-30.81-112.01-133.38-194.29-255.17-194.29-62.11,0-119.23,21.4-164.37,57.23-3.26,2.55-1.23,3.16,1.47,1.13Z"/>
    <g>
      <path d="M456.68,705.64c.29-.84.58-1.67.87-2.49-41.45,30.09-92.45,47.84-147.59,47.84-138.89,0-251.49-112.6-251.49-251.49,0-2.99-.13-3.57.16-8.93.29-5.36-1.87-5.19-2.24-.69-.31,5.21-.47,10.46-.47,15.75,0,146.15,118.48,264.63,264.63,264.63,63.88,0,122.47-22.64,168.2-60.32l-32.07-4.29Z"/>
      <path d="M583.45,475.28l-22.31,11.74c.2,4.13.31,8.29.31,12.47,0,61.73-22.24,118.27-59.15,162.03,2.08,6.61,2.41,16.54,2.41,16.54,0,0-5.11,12.96-2.16,19.65,50.89-48.23,82.62-116.45,82.62-192.1,0-10.26-.58-20.39-1.72-30.34Z"/>
    </g>
  </g>
</svg>