<?xml version="1.0" encoding="UTF-8"?>
<svg id="Layer_1" data-name="Layer 1" xmlns="http://www.w3.org/2000/svg" viewBox="0 0 550 500">
  <defs>
    <style>
      .cls-1 {
        fill: none;
        stroke: #010101;
        stroke-miterlimit: 10;
      }

      .cls-2 {
        fill: #010101;
      }
    </style>
  </defs>
  <path class="cls-2" d="M178.24,105.24c-3.62-6.26-8.51-10.81-14.92-13.84-5.29-2.5-10.43-5.31-15.64-7.99-2.47-1.27-4.97-1.69-7.53-.61-.3,1.13.07,1.83.27,2.49s2,7.79.38,12.25c-1.36,3.76-2.3,6-4.56,9.35-1.2,1.77.05,5.54-.22,7.55-.1.76.14,1.74-.98,1.89-.96.13-1.37-.68-1.77-1.37-1.62-2.76-1.99-6.97.92-9.97,3.41-3.51,5.42-6.99,5.81-11.9.22-2.81.19-4.82-1.79-6.67-2.43-2.28-5.2-4.12-8.36-5.07-3.81-1.15-6.8-3.34-9.45-6.17-1.36-1.46-2.86-2.67-5.08-2.34-.38.06-.93-.12-1.21-.39-3.29-3.2-7.05-4.08-10.62-2.54-1.1.47-3.03,1.84-4.38,1.75,2.32-3.84,10.22-6.43,13.9-2.6,1.87,1.04,3.73,1.97,5.77,2.63,2.1.67,3.73,2.17,4.94,3.91,1.51,2.17,3.41,2.67,5.93,2.65,5.85-.06,11.72-.41,17.54.49,3.46.53,6.72,1.52,9.64,3.56,1.37.96,2.85,1.99,4.43,2.38,7.62,1.88,12.56,7.41,17.68,12.68,3.03,3.12,5.48,6.69,7.8,10.4,4.8,7.68,11.24,13.36,19.78,17.07,9.79,4.25,19.74,7.4,30.32,8.56,8.37.91,16.79,1.42,25.22,1.39,18.52-.07,36.15,3.99,53.44,10.46,19.63,7.36,38.72,15.93,57.74,24.66,4.68,2.15,8.99,5,13.37,7.71,7.56,4.68,15.31,8.96,23.67,12.08.76.28,1.82.27,2.18,1.53-1.94.18-3.65-.51-5.35-1.06-13.88-4.46-27.17-10.38-40.45-16.32-12.39-5.55-24.58-11.52-36.89-17.25-13.29-6.18-27.66-8.79-41.97-11.41-12.46-2.28-24.95-4.44-37.66-4.72-3.98-.09-7.98.2-11.96.31-8.45.23-16.83-.25-25.08-2.32-3.39-.85-6.24-2.54-8.41-5.27-2.16-2.71-4.82-4.65-8.04-5.92-4.76-1.87-7.99-5.55-10.72-9.65-2.66-3.98-5.06-8.14-7.67-12.38Z"/>
  <path class="cls-2" d="M169.7,157.49c2.57,2.62,5.34,4.69,8.27,6.54,3.1,1.96,5.44,4.5,6.66,8.02.77,2.23,1.99,4.15,3.99,5.5.66.45,1.42.98,1.14,1.91-.34,1.14-1.42.94-2.25.85-6.67-.71-11.86-3.77-14.42-10.15-1.85-4.61-4.25-8.71-7.9-12.13-2.08-1.95-3.59-4.44-4.62-7.09-2.29-5.85-5.96-10.63-10.81-14.55-3.77-3.06-5.28-7.2-5.73-11.86-.06-.61-.23-1.25.5-1.69,1.07.12,1.33.99,1.53,1.84,1.13,4.92,4.04,8.41,8.51,10.59,3.61,1.76,5.52,4.88,7.01,8.36,2.1,4.91,4.39,9.7,8.13,13.86Z"/>
  <path class="cls-2" d="M78.09,82.21c4.23-.26,8.19-.87,11.92-2.73,4-1.99,8.24-3.59,13.26-3.57.59-.04.99,0,1.28-.13,6.28-2.83,10.72.95,15.52,3.25,1.27.61,2.3,1.65,1.86,3.15-1.53.44-2.32-.45-3.14-1.05-2.72-2.01-5.82-2.84-9.37-2.4-6.41.79-12.48,2.34-17.47,6.09-2.34,1.76-4.94,2.5-8.06,2.24-5.02-.43-10.09-.53-15.08-1.09-7.52-.85-14.84.1-22.18,1.24-1.56.24-3.14.51-4.75.04-.41-1.2.7-1.66,1.49-2.16,2.4-1.53,5.08-2.46,8.13-2.46"/>
  <path class="cls-2" d="M78.15,75.29c4.02.01,8.04,0,12.06.38-16.17,2.88-32.31,1.18-48.7-.58-6.51-.27-12.73.2-19.19,1.41.48-1.61,1.58-1.55,2.41-1.78,7.03-1.96,14.2-2.24,21.34-1.03"/>
  <path class="cls-2" d="M98.62,101.93c11.97,3.3,19.35-3.02,25.53-12.13,1.22,1.65.79,2.9.38,4.12-.94,2.81-2.94,4.84-5.17,6.61-3.43,2.71-7.31,4.72-11.34,6.33-4.25,1.7-8,.04-11.46-2.35-1.92-1.33-3.93-2.67-4.83-5.57,2.89.16,4.45,2.37,6.9,2.99Z"/>
  <path class="cls-2" d="M104.09,98.51c-1.91-.23-3.72.5-5.87-1.08,3.52-.73,6.6.14,9.5-.81,3-.98,4.53-4.05,7.53-5.31-.36,4.58-4.37,7.12-11.16,7.19Z"/>
  <path class="cls-2" d="M447.49,201.35s32.88,5.38,54.61-13.06,16.77-39.71,16.09-43.19c-.68-3.47-1.7-11.35.78-3.39,2.48,7.96,8.53,16.74-5.24,37.38-13.77,20.64-28.43,28.1-61.66,24.02-33.24-4.08-4.58-1.77-4.58-1.77Z"/>
  <path class="cls-2" d="M548.55,167.02c-.51-3.63-.82-7.07-1.39-10.48-2.43-14.72-7.55-28.38-15.87-40.85-9.06-13.58-21.38-23.6-34.77-32.52-20.56-13.7-42.87-21.52-67.86-20.53-.88.04-1.88-.29-2.63.42.25.67.67.79,1.1.89,9.75,2.39,21.88,3.8,31.49,6.7,12.96,3.91,29.04,12.79,34.99,17.49,4.35,3.44,21.18,19.5,31.34,36.32,11.95,19.77,10.38,49.69-.54,69.76-8.97,16.49-23.52,26.58-40.73,32.93-15.13,5.59-31.03,7.99-46.94,10.16-6.99.95-13.94,1.22-20.63-1.87-1.49-.69-3.33-1.33-5.34-.17,1.41,5.75,2.03,11.64,2.62,17.53.79,7.76,1.19,15.53,1.13,23.35-.04,4.96-2.03,9.31-3.15,13.93-.47,1.92-.09,4.02-1.24,6.04-1.65-2.52-2.34-5.11-1.81-7.76,1.65-8.22,2.22-16.5,1.97-24.87-.29-9.88-3.05-19.03-7.88-27.6-.36-.65-.65-1.54-1.75-1.27-.52.96-.15,1.9,0,2.86.39,2.36.99,4.7.67,7.12-1.38,10.39-4.58,20.21-9.19,29.59-3.44,7.02-8.03,13.39-11.37,20.48-2.69,5.71-2.24,10.86,1.73,15.89,4.63,5.86,9.53,11.46,14.51,17.02,8.66,9.67,18.02,18.63,27.65,27.31,3.19,2.88,5.35,6.35,6.14,10.64,1.54,8.34,4.61,16,10.14,22.57,1.09,1.3,1.62,2.92,2.04,4.58.98,3.87.35,7.73-1.08,11.21-2.48,6.02-1.57,11.58.89,17.23.72,1.66,1.46,3.42,1.03,5.78-1.81-1.81-3.86-1.51-5.89-1.45-2.84.09-4.63-1.03-4.62-3.62.01-4.88-1.09-9.4-2.71-13.97-1.52-4.29-.38-8.77.14-13.17.19-1.64.75-3.37-.36-5.22-1.12,1.67-1.31,3.37-1.85,4.92-3.51,10.1-7.9,19.58-16.93,26.15-1.93,1.41-3.44,1.8-5.47-.05,4.44-4.77,9.27-9.2,12.39-15.1,4.67-8.84,6.77-15.24,5.12-18.94-1.31,8.5-5.86,14.35-11.56,19.47-5.78,5.19-11.93,9.52-20.82,8.6,7.41-2.88,12.73-8.02,18.59-12.44,6.7-5.06,9.73-11.64,10.05-19.88.15-3.79.04-7.65,1.06-11.36.6-2.19,1.73-2.55,3.5-1.17,1.04.82,1.92,1.84,2.9,2.74.73.66,1.52,1.39,2.59.94,1.05-.45,1.12-1.53,1.22-2.5.25-2.46-.92-4.48-2.14-6.45-3.58-5.78-8.16-10.73-12.95-15.5-.89-.88-1.81-1.94-3.42-2.08-.22,1.53.68,2.44,1.41,3.38,1.03,1.33,2.24,2.54,3.19,3.92.9,1.3,1.29,2.94.15,4.21-1.18,1.32-2.47.15-3.58-.47-3.72-2.07-6.25-5.49-9.29-8.33-6.02-5.64-11.68-11.87-19.18-15.53-9.25-4.51-16.03-11.37-20.96-20.15-7.2-12.81-12.8-26.34-16.92-40.43-3.15-10.76-9.15-18.9-19.4-23.69-.81-.38-1.61-1.15-3.13-.02,8.56,4.95,13.26,12.33,15.4,22.03-.86-.34-1.21-.41-1.48-.59-6.58-4.57-13.88-7.7-21.6-9.43-11.32-2.54-22.16-6.38-32.71-11.06-8.54-3.79-14.38-9.93-15.1-19.87-.12-1.61.04-3.5-1.71-5.15-.35,7.2-.22,13.94,3.12,20.06,1.86,3.4,2.78,6.87,2.62,10.67-.1,2.41.66,4.52,2,6.49,2.33,3.43,2.27,4.05-.98,6.82-5.03,4.3-10.55,7.94-16.76,10.19-6.86,2.49-13.75,4.78-19.37,9.69-.09.08-.32.01-.84.01.77-2.11,1.75-3.87,3.42-5.28,2.64-2.23,5.75-3.46,8.96-4.55,4.54-1.54,9.06-3.16,13.08-5.86,3.59-2.41,6.44-5.45,6.96-9.92.32-2.8.37-5.7.03-8.49-.39-3.26-1.99-6.17-3.56-9.03-.72,3.09-.07,6.11-.81,9.09-.49,1.97-1.43,2.96-3.49,3.4-3.86.82-7.02,2.78-8.95,6.46-1.11,2.11-2.46,4.12-3.84,6.07-1.45,2.05-3.19,4.09-5.69,4.61-6.44,1.33-10.6,5.49-14.7,10.24-4,4.63-9.75,5.57-16.23,5.46,1.81-1.75,3.6-2.21,5.35-2.69,2.39-.66,4.86-1.09,7.2-1.87,3.96-1.33,6.73-5.3,6.42-9.59-4.6,3.93-9.46,2.44-14.33,1.36-.93-.21-1.96-.15-2.91,0-3.12.46-5.23,3.1-5.09,6.22,5.21-2.31,6.05-2.16,7.77,1.47-2.44,1.4-4.95,2.7-6.99,4.72-3.42,3.37-4.66,8.43-3.01,12.73,1.51,3.93,5.51,5.03,8.48,2.13-.75-.6-1.51-1.16-2.2-1.8-.63-.6-1.41-1.23-1.05-2.25.3-.88,1.16-.99,1.96-1.14,1.51-.29,2.9-.7,3.63-2.32.57-1.26,1.81-.92,2.83-.76,1.23.19,1.03,1.26,1.05,2.12.04,1.77-.08,3.56.11,5.32.3,2.83,1.88,4.64,4.18,4.75,2.57.12,5.16.12,7.72-.07,2.02-.15,3.71-.98,4.08-3.55-2.45-.02-5.11,1.27-6.42-.74,3.04-9.37,9.21-14.76,18.66-17.47-2.58,7.02-1.57,12.99,2.11,18.61,1.9,2.89,3.7,5.85,5.54,8.78,7.34,11.63,15.13,23.02,19.51,36.24.14.42.37.8,1.06.63,0-.3.03-.63,0-.96-.61-6.84-3.83-12.65-7.15-18.44-1.5-2.62-2.97-5.3-3.2-8.39-.41-5.4-1.99-10.4-4.59-15.15-2.61-4.77-4.48-9.84-5.33-15.25-.86-5.4,4.47-12.61,9.82-13.01,9.25-.69,18.24.52,26.83,4.18,1.17.5,2.58.76,3.22,2.22-1.3,2.68-3.62,4.37-5.92,5.99-7.81,5.51-16.36,5.19-25.38,2.4.32,1.6,1.11,2.07,1.81,2.54,3.03,2.02,5.98,4.17,9.15,5.94,4.53,2.53,6.92,6.28,7.09,11.38.13,3.81.05,7.63-.03,11.45-.05,2.28.37,4.43,1.39,6.43,2.11,4.13,2.77,8.56,2.89,13.13.21,7.72.32,15.44.74,23.14.24,4.5.25,9.07,1.26,13.49,1.99,8.73,1.12,17.81,3.4,26.49.07.25.03.53.02.8-.04,1.17-.05,2.5-1.29,2.99-1.25.5-2.08-.7-3.01-1.31-.87-.57-.72-1.53-.79-2.41-.25-3.07.87-5.94,1.2-8.93.18-1.67.85-3.85-.94-4.52-1.86-.7-2.71,1.56-3.62,2.88-2.77,4.04-4.79,8.5-7.06,12.82-1.91,3.63-4.67,6.13-8.61,7.47-2.5.85-5.16,1.25-7.51,2.61-1.03.59-2.31.28-3.31-.39-3.85-2.61-7.64-3.06-11.38.36-.59-3.24.32-4.89,3.09-5.66,1.62-.45,3.3-.58,4.99-.74,3.95-.39,8.14-.4,11.01-3.79,5.56-6.59,11.62-12.71,17.45-19.04.55-.6,1.45-1.14.83-2.25-1.31-.02-2.09.94-2.98,1.59-5.81,4.25-11.76,8.29-18.02,11.83-5.1,2.89-10.29,5.34-16.35,5.95-6.21.62-12.16,2.31-14.31,9.47-.34,1.13-1.37,1.89-2.69,1.8-1.33-.08-1.99-1.02-2.46-2.14-.95-2.3-.64-4.73-.59-7.11.05-1.92-.76-2.56-2.57-2.31-2.84.39-5.58,1.06-8.08,2.5-5.18,2.99-7.51,9.67-5.07,15.13,2.09-1.96,4.1-3.95,6.93-4.72,1.99-.54,3.47-.41,4.91,1.37,2.2,2.7,5.23,4.04,8.7,4.68,3.13.58,6.14-.32,9.3-.31.19,1.98-.54,4.15,1.57,5.71,1.04-1.23,1.47-3.05,3.13-3.23,5.44-.57,10.85-1.98,16.38-.86,5.3,1.07,10.6,2.11,16.07,1.77,6.43-.41,9.34-3.35,9.4-9.67.02-1.87-.22-3.8.74-5.77,1.79,2.48,3.28,4.86,5.65,6.58,2.58,1.88,7.37.48,7.99-3.68-1.04-.09-2.14,0-3.11-.31-1.37-.45-2.28-1.64-1.06-2.83,3.13-3.06,2.07-6.14.28-9.19-1.2-2.05-.8-3.67.64-5.3,1.01-1.14,2.11-2.11,3.44-2.89,2.06-1.21,4.17-2.41,6.03-3.9,7.8-6.23,7.75-9.92,4.12-16.63-4.29-7.93-5.75-16.36-4.54-25.23,1.07-7.83,1.48-15.57.26-23.49-1.11-7.22,3.73-17.39,13.26-20.16,5.35-1.56,10.7-3.25,15.67-5.89,3.08-1.63,6.42-2.5,9.77-3.4,1.76-.47,2.66-.09,3.23,1.59,4.29,12.7,13.47,21.46,23.7,29.4,4.99,3.88,10.91,6.3,15.78,10.38,8.99,7.54,16.56,16.12,20.24,27.5,1.74,5.4,2.91,10.98,4.64,16.38,1.51,4.73.11,8.3-3.51,11.31-5.06,4.19-10.09,8.4-15.17,12.57-2.65,2.18-5.67,3.56-9.02,4.37-3.88.93-7.8,1.86-11.22,4.04-4.72,3-4.94,11.34-.44,14.72.24.18.62.17.96.25.91-1.72.45-3.64,1.37-5.23,1.06-1.82,3.37-2.84,4.66-1.56,3.38,3.36,7.4,2.77,11.46,2.4,1.28-.12,2.49-.07,3.46.7.15.06.26.16.33.29,1.31,2.67,10.37,4.72,12.72,5.22.18.03.37.07.56.11.58.15,1.24.03,1.86.03,6.16-.01,8.77-1.64,11.8-7.74-.29,3.96,1.4,5.76,4.66,6.66,2.41.66,3.78,2.83,4.98,4.95.52.91,1,1.84,1.48,2.74,1.3-.17,1.32-1.23,1.69-1.96,1.22-2.35,2.64-4.26,5.5-4.96,2.59-.64,4.6-4.67,4.22-7.61-.36-2.84-1.19-5.54-2.42-8.12-1.03-2.17-1.8-4.42-2.33-6.77-.65-2.87-.41-5.34.75-7.67.03-.07.07-.15.12-.24,2.53-4.12.33-14.52.33-14.52-1.61-8.5-5.56-15.43-7.35-23.12-.87-3.75-1.23-7.53-.94-11.34.27-3.53.75-7.04,1.16-10.56.58-4.98-.03-5.96-4.83-6.91-2.34-.46-3.27-1.79-3.42-4.03-.14-2.09.45-4.03.97-6,2.38-9.07-.9-18.69-8.3-24.36-2.5-1.92-3.61-4.49-3.82-7.57-.1-1.52.51-2.3,1.99-2.59,21.09-4.13,41.65-10.15,61.78-17.65,3.74-1.39,7.38-3.03,11.08-4.53,0,0,11.77-6.11,17.81-10.27,12.78-9.21,20.85-22.39,28.18-36.05,6.39-11.91,8.83-24.99,9.61-38.4.04-.7.18-1.4.33-2.55.06-5.8.06-11.14-.02-16.67ZM310.72,383.27c1.52,3.83.66,5.91-2.87,7.97-1.58.92-3.08,1.98-4.65,2.99-.03-.23-.12-.46-.06-.54,4.81-5.09,5.31-10.9,3.05-17.27-1.54-4.34-2.6-8.87-4.37-13.1-3.09-7.4-3.47-14.93-2.17-22.69.09-.52.11-1.05.11-1.57,0-.11-.23-.23-.75-.72-2.39,5.46-1.93,11.11-2.59,16.59-.69,5.74,1.46,10.95,2.31,16.49-.36-1.08-.75-2.15-1.06-3.25-.33-1.19-.62-2.4-.87-3.62-1.79-8.59-3.26-17.22-3.16-26.05.04-2.97.76-5.78,2.09-8.43,1.42-2.28,3.09-3.62,5.45-3.14,2.65.54,3.44,2.73,3.91,5.12.93,4.69.58,9.41-.12,14.03-1.48,9.82.49,19.21,2.93,28.58.76,2.91,1.68,5.77,2.8,8.58ZM322.68,296.15c-8.38-3.5-15.99-8.43-24.31-11.92-6.74-2.83-13.84-4.33-21.14-4.82-.32-.02-.63-.11-.87-.46,13.23-.43,25.79,1.48,36.26,10.64,9.33,7.33,20.17,7.5,31.39,8.11-7.69,1.39-15.56.85-21.33-1.55Z"/>
  <path class="cls-2" d="M67.95,163.66c-6-5.06-11.01.61-18.61,3.57.85.44,10.09-2.52,12.98,1.25,1.07,1.56,6.71-4.26,5.63-4.82-.71.49,0,0,0,0Z"/>
  <path class="cls-2" d="M261.1,256.62c-.48-.57-1.19-.4-1.88-.29-3.8.6-7.61.37-11.43.26-8.18-.25-13.91-4.13-17.43-11.46-1.16-2.41-2.13-4.87-2.96-7.41-.87-2.7-1.77-5.4-2.81-8.03-.42-1.07-.72-2.44-2.51-2.69.26,2.88.52,5.67.82,9.01-3.42-5.26-5.75-10.53-9.53-14.8-1.33-1.5-1.4-2.78-.27-4.21,6.64-8.39,14.07-15.42,25.92-14.51,3.54.27,7.06.64,10.6.83,1.74.09,3.68.5,4.97-1.31-.76-1.5-2.14-1.51-3.29-1.69-6.97-1.08-13.98-1.28-20.93,0-4.5.83-8.94,2.37-11.83,6.11-2.45,3.17-5.4,4.15-9.07,3.73-3.9-.44-7.77-.61-11.67.04-1.4.24-2.8.17-3.81-1.24-1.75-2.45-4.25-3.98-6.91-5.28-3.85-1.89-7.97-2.98-12.07-4.11-2.84-.79-5.19-2.19-6.79-4.77-1.26-2.02-3.05-3.51-5.3-4.26-9.18-3.09-14.34-10.34-18.97-18.16-.56-.94-.73-2-.7-3.08.09-3.45-.03-6.9.42-10.36.31-2.38.59-4.86.12-7.34-8.32,20.18-22.47,31.83-44.51,33.69.06-3.03,2.48-4.66,2.25-7.2-1.36.11-1.91,1.01-2.65,1.6-4.01,3.22-8.49,5.57-13.54,6.5-3.12.57-5.98,1.55-8.68,3.17-5.86,3.51-11.52,7.36-17.69,10.34-5.41,2.61-10.92,4.66-17.1,4.13-5.19-.44-9.13-3.24-10.43-7.69-.76-2.6-.36-3.25,2.4-3.74,2.53-.45,5.05-.84,7.4-2.03,8.5-4.32,16.66-9.09,23.34-16.08,2.75-2.88,5.75-5.55,8.78-8.15,4.52-3.87,9.28-7.06,15.79-6.33,2.2.25,4.59-.47,6.79-1.1,10.17-2.91,18.91-7.35,22.5-18.57,1.94-6.07,5.47-11.53,9.4-16.63,1.42-1.84,3.21-3.32,4.93-4.98-3.26-.42-6.41.72-9.65-.47,1.84-6.7,4.48-22.41,3.27-21.24-2.42,2.17-1.85,4.92-2.62,7.56-1.88,6.44-3.4,12.54-10.33,15.33-4.29,1.72-8.69,3.14-13.22,4.03-3.77.74-7.19.15-10.44-2.49-5.17-4.2-11.2-7.39-17.97-7.15-8.8.31-17.53.28-26.27-.84-8.43-1.08-16.73-2.59-23.68-7.92-3.19-2.45-6.23-4.77-10.38-5.58-3.56-.7-5.01-1.9-4.19-5.44.48-2.07,1.38-7.01.73-7.01s-1.22.97-1.75,2.14c-.78,1.7-1.67,2.97-2.46,4.59h0s0,.01-.01.02c-.55,1.13-1.07,2.42-1.47,4.15-.02.09-.02.19-.03.28-1.14,4.3-1.79,10.39,2.86,12.08.02-.32.04-.52.04-.52,0,0,.11-1.39.94-1.54.64-.04,1.1.07,1.42.26.45.27.62.73.56,1.28,0,.78-.04,1.46-.07,2.06.3,0,.63.01.95,0,.08-.88.2-1.47.2-1.47.25-2.04,2.31-1.25,3.45-1.02s-.73,2.04-1.15,6.72c-.01.13-.03.25-.04.37.4-.18.8-.17,1.04-.19.37-.04.43.77.41,1.89l.5.34c-.03-3.19.19-6.87.19-6.87-.14-.7,1.34-1.01,2.5-.04.14.12.27.25.4.41.03.03.05.06.08.1.05.06.09.13.14.21.04.06.08.13.12.2.03.06.07.12.1.19.07.14.13.29.18.45.02.05.03.1.05.16.04.13.08.27.11.42.01.06.03.12.04.18.04.21.07.42.08.65.02.26.03.51.02.74,0,.06,0,.11,0,.17,0,.17-.01.34-.03.5,0,.04,0,.08-.01.13-.02.17-.04.33-.07.49,0,.02,0,.03,0,.05-.03.17-.07.34-.12.5h0c-.46,1.6-1.42,2.44-1.48,5.27.09.02.18.04.27.06-.07-.72-.1-1.24-.1-1.24-.11-1.34,1.07-1.12,2.09-.97.8.11,1.18,1.12,1.16,2.82.2.03.42.05.63.07-.25-3.13-.16-7.9-.16-7.9.07-1.9,4.24-.29,4.31,2.29.06,2.07-.49,3.59-1.02,5.84.12,0,.24.01.36.01.08,0,.15,0,.23,0,0-.19,0-.31,0-.31.34-1.9,2.68-.74,2.68-.74,0,0,.01.48-.01,1.13.19,0,.37.02.55.02-.08-2.26.07-4.52.07-4.52.03-.65,3.07-3.36,3.29.95.08,1.61-.06,2.49-.28,3.09,1.03-.44,2.69-.46,3.52-.04-.09-1.29-.03-2.4-.03-2.4.02-.54,4.77-.21,4.26.84-.22.45-.36,1.58-.46,2.97.23.03.46.07.68.1.71-.72,2.81-1.01,4-.62-.32-2.2.06-3,.06-3,.19-1.17,2.63-.87,4.09-.55,1.46.32,1.24,2.68.73,5.01-.01.05-.02.11-.04.17.35,0,.71-.02,1.09-.04-.07-.24-.11-.4-.11-.4-.04-1.23,1.82-.96,2.25-.56-1.13-1.68-1.28-3.25-1.28-3.25-.24-1.1,2.04-1.56,3.16-.92,1.11.63.6,2.11.44,4.74.25-.03.49-.05.73-.08-.02-.09-.04-.15-.04-.15-.05-1.35,2.19-.89,2.34-.45.02.06.04.18.05.31.22-.03.41-.06.61-.08-.17-.2-.36-.45-.58-.74-1.07-1.41-.73-3.26-.73-3.26.03-1.12,2.48-1.31,2.63-.29.15,1.02-.34.49-.39,2.99-.01.52-.04.9-.08,1.18.18-.03.38-.06.55-.08-.04-.38-.05-.63-.05-.63-.05-1.35,2.19-.89,2.34-.45.03.09.04.31.03.62.16-.04.3-.08.45-.12-.78-1.01-.6-3.24-.6-3.24,0,0,1.66-1.28,2.34-.26.68,1.02-.29,1.36-.29,2.99,0,.01,0,.02,0,.03,1.1-.46,1.87-1,3.05-1.74.9,1.23,1.91,2.86,2.06,4.13.29,2.34,1.65,5.72,1.68,8.37.04,3.12.44,15.63,0,17.74-.04.19-.08.47-.12.8,3.85.16,6.58,1.01,6.58,1.01v3.21c0,2.34-7.46,7.16-7.46,7.16,0,0-.55-.52-1.54-1.03-1.56,1.74-2.47,3-2.47,3-1.81,2.35-3.74,4.43-5.75,6.29.3.65.38,1.16.04,1.66-.63.91-2.4,1.46-3.04.9-.18.15-.35.27-.52.41,1.2,1.36,1.84,2.17,1.28,3.08-.77,1.26-4.35,1.87-4.79,1.87s-1.04,0-1.26,0c-.98,1.25-3.91.9-3.91.9-.1.04-.4.23-.51.27.33.78.16.36.41.63.84.91-3.9,2.7-4.08,2.15,0,0-.19-.27-.49-1.58-.17.05-.4-.02-.58.03,0,0-1.6,1.3-2.48.34.06.34.1.69.12,1.06.14,2.57-3.88,4.52-4.11,2.63l-.58.61s-2.2,1.92-3.1.23c-.81.13-1.62.48-2.03.2l-.08-.29c-.09.03-.19.06-.27.08-.55.33-1.31.5-1.89.77-2.58,1.21-2.83,1.87-1.25,4.23,6.46,9.63,15,15.28,27.45,12.22.6-.16,2.87-.8,5.13-1.54.16-.07.34-.14.52-.2,4.48-1.47,8.71-3.53,12.86-5.76,3.2-1.72,6.37-3.51,9.83-4.71,5.55-1.93,11.14-3.42,17.1-3.53,3.89-.08,7.58-1.55,11.31-2.72,4.93-1.55,10.27-1.47,15.14-3.5.9-.38,1.75.47,2.04,1.35,1.75,5.38,6.23,8.25,10.4,11.39,5.64,4.24,12.29,6.7,18.25,10.41,7.72,4.8,15.83,8.75,24.86,10.55,2.96.59,5.76,1.79,8.42,3.24,4.48,2.44,7.72,5.87,9.03,10.96.75,2.93,1.75,5.83,3.72,8.18,1.33,1.59,1.18,3.09.3,4.63-.65,1.15-1.47,2.23-2.38,3.18-5.97,6.23-12.34,12.04-19.41,16.99-3.21,2.25-5.5,4.97-6.76,8.61-2.13,6.15-1.61,12.78-3.32,19.01-.33,1.2-.03,2.46-2.02,2.31-1.78-.13-1.49,1.02-.83,2.12.63,1.04,1.83,1.67,2.22,3.17-3.87.91-3.84-3.09-5.66-4.68-1.4,2.14-.57,3.85.38,5.46,2.11,3.55,7.96,5.7,12.49,4.68,3.28-.74,4.89-3.03,4.71-6.4-.07-1.3-.54-1.71-1.85-1.27q1.73-3.24.6-5.23c-.86.41-1.71.89-2.61,1.2-.68.24-1.46.22-1.89-.52-.41-.69-.35-1.55.31-1.92,1.68-.92,1.41-2.72,1.91-4.08,9.76-.44,12.4-2.19,10-6.58-1.48.21-2.8,2.37-4.3.97-1.22-1.14.23-2.8.21-4.25,0-.44.11-.88.15-1.32.1-1.13.82-1.7,1.81-2.07,11.57-4.27,22.47-9.56,30.17-20.05,1.5,1.16,2.68,2.28,4.5,3.59,1.06.76,1.82,1.1,3.24,1.24,1.31.07,3.07.32,3.82.48,3.26.89,5.51,1.4,8.93,1.18.82-.05,1.7.03,2.15.79,2.38,4.05,6.46,4.92,10.57,5.9,1.51.36,2.49.05,3.51-1.05,2.59-2.81,5.29-5.51,8.84-7.16.46-.21.96-.51.84-1.33ZM72.44,120.9c1.14-.07,1.79-.12,1.79-.12.12,0,.24,0,.36,0,.09,0,.16,0,.21,0,0,0,0,0,0,0,4.21.08,7.55,1.65,10.36,4.4,2.68,2.63,5.48,5.03,8.91,6.66,2.3,1.09,4.43,1.09,6.56-.28,1.72-1.11,3.43-2.21,5.12-3.36,3.34-2.28,7.07-3.54,11.03-4.19.51-.08,1-.21,1.47-.36h-.01s4.32-1.04,6.74-1.24c-3.49,6.61-7.9,12.42-12.5,18.08-1.68,2.06-3.41,4.08-5.04,6.19-2.78,3.61-6.9,4.86-11.19,5.43-2.62.35-5.29.24-7.94.4-2.39.14-4.81-.02-7.39.44-.49.11-1.03.26-1.62.45,0,0-.02,0-.02,0-.08.02-.16.05-.24.08-.09.03-.18.06-.27.09-.95.33-1.88.74-2.78,1.21l-.11-.33s.68-23.82-3.45-33.56Z"/>
  <path class="cls-1" d="M31.61,183.6s-.21-.37-.48-.57c-.3-.22-.68-.64-.7-.9-.07-.94,0-1.08.11-1.65.23-1.38.47-1.49.72-1.61.42-.19,1.89-.01,1.92,2.83.03,2.65.22,3.13.27,3.74.01.14.37,1.22-.36,1.24-.37,0-.57-.83-.63-1.2-.07-.41-.29-1.02-.84-1.88Z"/>
  <path class="cls-1" d="M37.48,124.82s.44,6.03,1.22,7.49.73,1.75,1.46,1.8,1.66-2.54,2.19-3.6c.7-1.4-.21-4.19-.5-5.69s-4.51-1.45-4.37,0Z"/>
  <path class="cls-1" d="M30.05,122.28s-.32,8.81,1.49,10.62,1.31-1.61,1.31-2.14.86-4.79.51-6.61c-.32-1.62-3.62-3.75-3.31-1.87Z"/>
  <path class="cls-1" d="M23.46,123.3s0,4.24,1.41,4.09,1.27-4.83,1.27-4.83c0,0-2.34-1.16-2.68.74Z"/>
  <path class="cls-1" d="M15.86,121.45s.24,3.75.73,5.06.54,1.41.97,1.27,1.17-.33,1.46-2.96-.05-4.19-1.07-4.34-2.2-.37-2.09.97Z"/>
  <path class="cls-1" d="M11.11,118.56c.29-.57.37-.89.35-1.84-.01-.53.76-.16,1.04-.19.58-.06.39,1.96.34,4s-.78,1.46-1.27,4.09-.92.54-1.22-.83c0,0-.31-3.16.75-5.23Z"/>
  <path class="cls-1" d="M47.56,125.27s.63,2.67,1.56,2.57.92-2.57.78-3.01-2.39-.9-2.34.45Z"/>
  <path class="cls-1" d="M52.83,125.04s.63,2.67,1.56,2.57.92-2.57.78-3.01-2.39-.9-2.34.45Z"/>
  <path class="cls-1" d="M7.98,113.04s-.11,1.5-.21,1.99c-.25,1.2-.68,1.27-.73,1.57-.1.55.05,1.92.26,2.37.54,1.12,1.46,3.29,2,.89.26-1.15.33-1.5.23-2.11-.12-.71-.25-1.15-.44-2.04s-.16-1.5-.16-2.18c0-.51.43-3.25,0-3.21-.65.06-.19-.03-.64.09-.29.08-.3,2.27-.3,2.63Z"/>
  <path class="cls-1" d="M57.17,123.98s.28,4.26,1.2,4.17,1.28-4.17,1.13-4.61-2.39-.9-2.34.45Z"/>
  <path class="cls-1" d="M5.2,110.06s-.22,2.1,0,4.57.88,2.66,1.39,2.22,1.46-.95,1.53-6.79c.11-.95-.44-1.62-1.98-1.54-.83.15-.94,1.54-.94,1.54Z"/>
  <path class="cls-1" d="M44.71,180.82s-1.89-6.81-.9-9.26,1.9,1.02,2.12,1.53,2.09,4.92,3.02,6.61c.87,1.57-3.77,3.06-4.24,1.12Z"/>
  <path class="cls-1" d="M37.49,182.72s-1.17-4.17.24-4.34,2.3,4.43,2.3,4.43c0,0-1.79,1.68-2.54-.09Z"/>
  <path class="cls-1" d="M54.25,174.69s-.57-1.51-.25-3.55.51-3.87,1.81-1.52,2.43,3.47,1.7,4.53-2.99,1.64-3.25.54Z"/>
  <path class="cls-1" d="M27.6,187.53s-1.25-4.91-.98-6.12.67-3.54,1.74-1.32.84,1.37,1.29,2.87c.16.54-.2,1.4-.16,1.92.05.73,0,1.17.16,1.82.06.22.1,1.04-.16,1.07-1.06.15-1.67.66-1.88-.24Z"/>
  <path class="cls-2" d="M67.95,163.66s-4.79-4.47-11.41,0c-2.43,1.64-2.04,1.01-5.18,2.71-1.45.79-1.83,1.34-2.02.86.2.7.64-.25,1.76-.22,0,0,9.5-1.61,11.22,1.47.95,1.69,5.62-3.84,5.62-3.84,0,0,.34-.61,0-.98-.71.49,0,0,0,0Z"/>
  <path class="cls-1" d="M74.68,153.86s-13.01-4.09-22.37,3.94-12.28,7.59-13.31,7.59-2.05.51-2.05,1.46c0,1.1.29,1.46,1.9,1.61s10.38.29,16.96-4.24,11.41,0,11.41,0c0,0,7.46-4.82,7.46-7.16v-3.21Z"/>
  <path class="cls-1" d="M59.39,120.79s-.19,2.47.73,3.39,1.31.96,1.31-.66.97-1.96.29-2.99-2.34.26-2.34.26Z"/>
  <path class="cls-1" d="M54.52,120.82s-.34,1.85.73,3.26,1.46,1.94,1.51-.57.54-1.96.39-2.99-2.59-.83-2.63.29Z"/>
  <path class="cls-1" d="M48.53,121.45s.15,1.61,1.31,3.31,2.14,3.26,2.29.58.68-4.18-.44-4.82-3.41-.17-3.16.92Z"/>
  <path class="cls-1" d="M41.78,121.08s-.65,1.34.44,5.35,1.02,4.88,2.12,5.03,1.75-3.58,2.26-5.91.73-4.69-.73-5.01-3.9-.62-4.09.55Z"/>
  <path class="cls-1" d="M9.2,110.65s-.63,2.99,0,5.7,1.88,4.67,2.3,0c.42-4.67,2.28-6.49,1.15-6.72s-3.2-1.02-3.45,1.02Z"/>
  <path class="cls-1" d="M13.6,111.89s-.44,7.16,0,10.15,2.41,6.94,2.12,1.75,1.97-4.82,1.68-8.98-4.02-4.02-3.8-2.92Z"/>
  <path class="cls-1" d="M19.59,115.47s-.15,7.67.44,9.93,1.9,3.36,2.48,0,1.46-5.07,1.39-7.65-4.24-4.18-4.31-2.29Z"/>
  <path class="cls-1" d="M26.74,119.19s-.37,5.7.37,8.03,1.46,1.39,1.61-1.17,1.53-1.61,1.31-5.91-3.25-1.6-3.29-.95Z"/>
  <path class="cls-1" d="M33.24,120.79s-.17,2.95.44,4.88,1.39,4.48,1.85,5.31,1.22,2.77,1.29-.39.17-7.91.68-8.96-4.24-1.38-4.26-.84Z"/>
  <path class="cls-1" d="M49.19,180.41s-1.93-4.87-1.27-10.32c.66-5.45,2.36.97,4.47,3.55,2.1,2.58,3.61,3.64,2.85,4.9s-4.35,1.87-4.79,1.87-1.04,0-1.26,0Z"/>
  <path class="cls-1" d="M33.57,186.84s-.77-7.63-.37-9.93,1.62-3.5,2.47-.2,1.87,4.93,2.01,7.51-3.88,4.52-4.11,2.63Z"/>
  <path class="cls-1" d="M41.1,184.36s-1.08-2.95-1.05-5.1.04-4.98.26-5.97.39-3.2,1.43,0,2.59,8,3.44,8.91-3.9,2.7-4.08,2.15Z"/>
  <path class="cls-1" d="M29.8,187.54s-1.03-4.55.61-4.75,2.61,4.86,2.61,4.86c0,0-2.37,1.84-3.22-.11Z"/>
  <path class="cls-2" d="M110.85,89.9c-.25-2.57-3.99-4.3-8.35-3.87-2.82.28-5.2,1.4-6.47,2.85,0,0,0,0,0,0,0,0-.03.04-.08.1-.21.25-.38.51-.52.78-1.16,1.94-2.82,6.4,6.93,5.67.63-.05,1.17-.11,1.64-.17.21-.03.42-.07.62-.1.04,0,.08-.01.11-.02,3.69-.74,6.35-2.93,6.12-5.23ZM101.48,94.1c-.55.04-1.09-1.24-1.21-2.85s.24-2.95.79-2.99,1.09,1.24,1.21,2.85-.24,2.95-.79,2.99Z"/>
  <path class="cls-2" d="M139.16,67.74c37.04-28.24,83.3-45,133.47-45,106.38,0,195.15,75.37,215.83,175.62l17.06-11.51c-26.99-98.15-116.88-170.25-223.61-170.25-54.43,0-104.48,18.76-144.04,50.15-2.85,2.24-1.08,2.77,1.29.99Z"/>
  <g>
    <path class="cls-2" d="M401.2,423.75c.25-.74.51-1.47.76-2.18-36.32,26.37-81.01,41.93-129.33,41.93-121.71,0-220.38-98.67-220.38-220.38,0-2.62-.12-3.13.14-7.83.26-4.7-1.64-4.55-1.96-.6-.27,4.57-.41,9.17-.41,13.8,0,128.07,103.82,231.89,231.89,231.89,55.98,0,107.32-19.84,147.39-52.86l-28.1-3.76Z"/>
    <path class="cls-2" d="M512.29,221.89l-19.55,10.29c.18,3.62.27,7.26.27,10.93,0,54.1-19.49,103.64-51.83,141.99,1.82,5.8,2.11,14.49,2.11,14.49,0,0-4.47,11.36-1.89,17.22,44.59-42.26,72.4-102.05,72.4-168.33,0-8.99-.51-17.86-1.51-26.59Z"/>
  </g>
</svg>